<?xml version="1.0" encoding="UTF-8"?>
<!DOCTYPE svg PUBLIC "-//W3C//DTD SVG 1.1//EN" "http://www.w3.org/Graphics/SVG/1.1/DTD/svg11.dtd">
<svg version="1.1" xmlns="http://www.w3.org/2000/svg" xmlns:xlink="http://www.w3.org/1999/xlink" x="0" y="0" width="70" height="70" viewBox="0, 0, 1217.25, 713.25">
  <g id="Layer_1">
    <path d="M403.299,238.786 C407.018,235.379 411.079,232.364 415.197,229.446 C415.073,229.205 414.99,228.931 414.828,228.717 C413.485,226.962 410.848,226.276 407.396,226.784 C407.05,226.834 406.701,226.899 406.345,226.973 C402.851,227.702 399.087,229.518 395.635,232.16 C391.828,235.071 388.899,238.604 387.371,242.109 C385.981,245.309 385.951,248.036 387.295,249.79 C390.235,253.633 399.031,252.061 406.485,246.346 C410.292,243.437 413.226,239.904 414.754,236.398 C415.852,233.87 416.065,231.66 415.456,229.966 C411.262,232.706 407.126,235.541 403.299,238.786 M1188.668,386.069 C1183.923,403.142 1176.282,419.499 1164.474,432.556 C1152.932,445.797 1138.84,456.543 1124.192,466.301 C1109.457,475.983 1094.107,484.798 1078.641,493.414 C1063.147,501.977 1047.523,510.385 1031.884,518.747 L1030.774,519.338 L1030.374,520.585 C1027.393,529.9 1024.013,539.073 1019.947,547.936 C1015.798,556.753 1010.95,565.225 1005.349,573.165 C994.261,589.133 979.848,602.687 963.308,613.031 C946.771,623.432 928.334,630.72 909.432,636.305 C890.541,642.055 871.033,645.829 851.773,650.576 C871.328,647.284 890.926,644.168 910.285,639.394 C929.569,634.509 948.627,627.703 965.952,617.344 C983.295,607.102 998.539,593.127 1010.29,576.675 C1016.158,568.445 1021.232,559.674 1025.568,550.575 C1029.641,541.831 1033.052,532.813 1035.94,523.647 C1051.168,515.347 1066.477,507.206 1081.503,498.481 C1096.906,489.593 1112.24,480.494 1126.87,470.228 C1141.479,460.01 1155.492,448.477 1166.733,434.421 C1178.066,420.428 1185.239,403.439 1188.668,386.069 M868.158,608.697 C906.383,599.333 944.044,587.945 981.245,575.291 C943.621,586.591 905.816,597.377 867.465,605.7 C829.195,614.223 790.369,620.73 751.295,622.226 C731.772,622.888 712.226,622.285 692.908,619.834 C673.582,617.436 654.559,612.985 636.093,606.791 C599.087,594.455 564.457,575.559 527.987,560.461 C491.573,545.236 453.449,533.833 414.587,526.86 C395.176,523.265 375.59,520.735 355.963,518.899 C336.305,517.063 316.687,516.123 297.088,514.93 C257.884,512.534 218.662,510.203 179.73,505.429 C160.29,503.039 140.848,500.105 121.966,494.919 C112.556,492.286 103.25,489.062 94.691,484.34 C90.436,481.959 86.377,479.176 82.917,475.724 C79.497,472.257 76.725,468.056 75.377,463.309 C76.565,468.095 79.218,472.437 82.573,476.055 C85.959,479.664 89.982,482.623 94.212,485.172 C102.755,490.176 112.075,493.646 121.493,496.535 C140.393,502.218 159.858,505.642 179.323,508.516 C218.333,513.916 257.578,516.814 296.761,519.799 L326.151,521.971 C335.961,522.659 345.697,523.348 355.444,524.338 C374.924,526.25 394.335,528.854 413.539,532.508 C452.009,539.599 489.55,551.043 525.573,566.278 C561.766,581.038 596.56,599.832 634.291,612.232 C671.92,624.857 712.093,629.32 751.504,627.05 C790.992,624.942 829.912,617.861 868.158,608.697 M802.082,643.891 C798.068,642.904 794.038,641.936 789.925,641.432 C785.86,640.908 781.567,640.582 777.591,642.022 C775.609,642.762 773.905,644.164 772.783,645.964 C771.761,647.827 771.246,649.897 771.005,651.969 C770.528,656.021 770.8,660.067 770.951,664.088 C762.91,665.833 754.693,666.985 746.507,666.373 C738.225,665.807 730.177,663.169 723.148,658.845 C719.617,656.698 716.319,654.185 713.104,651.523 C709.843,648.925 706.759,646.031 702.895,643.966 C701.001,642.962 698.638,642.348 696.553,642.287 C694.453,642.143 692.352,642.06 690.25,641.992 C688.142,641.956 686.029,641.95 683.896,642.083 C681.775,642.227 679.619,642.438 677.457,643.289 C676.417,643.747 675.18,644.549 674.775,645.971 C674.401,647.347 674.782,648.565 675.137,649.602 C675.922,651.681 676.937,653.479 677.581,655.362 C678.204,657.221 678.442,659.153 677.628,660.766 C676.879,662.398 675.322,663.676 673.6,664.646 C670.135,666.729 666.146,667.552 662.134,667.285 C658.118,666.947 654.181,665.698 650.448,664.02 C642.973,660.596 636.246,655.591 629.953,650.212 C623.677,644.785 617.778,638.838 612.409,632.56 L612.162,632.268 L611.82,632.18 C608.573,631.31 605.23,630.592 601.735,630.603 C599.992,630.63 598.201,630.844 596.464,631.471 C594.729,632.09 593.08,633.267 592.006,634.856 C589.84,638.104 589.862,641.923 590.278,645.284 C590.634,647.815 591.25,650.234 592.083,652.608 C571.984,646.308 552.386,638.429 533.63,628.846 C514.048,618.925 495.544,607.097 476.937,595.328 C467.629,589.451 458.221,583.621 448.31,578.615 C438.397,573.628 427.943,569.536 416.648,568.044 C405.481,567.495 394.551,567.855 383.524,567.886 L350.514,568.1 C306.522,568.186 262.489,567.115 218.686,563.065 C196.807,560.923 174.962,558.207 153.371,554.042 C142.587,551.9 131.863,549.43 121.295,546.385 C110.758,543.249 100.354,539.62 90.331,535.055 C100.28,539.773 110.646,543.562 121.153,546.86 C131.695,550.064 142.402,552.703 153.169,555.012 C174.742,559.528 196.6,562.599 218.522,564.77 C262.386,569.05 306.475,570.352 350.509,570.499 L383.539,570.449 C394.517,570.476 405.61,570.182 416.432,570.776 C426.996,572.229 437.339,576.259 446.998,581.211 C456.716,586.179 466.022,592.007 475.29,597.931 C493.774,609.836 512.593,621.477 532.33,631.417 C552.058,641.369 572.701,649.481 593.854,655.834 L596.452,656.615 L595.377,654.095 C594.142,651.215 593.185,648.058 592.742,644.951 C592.321,641.871 592.429,638.586 594.011,636.244 C595.55,633.854 598.691,633.031 601.765,632.986 C604.78,632.961 607.86,633.568 610.884,634.352 C616.345,640.645 622.204,646.484 628.517,651.886 C634.945,657.317 641.81,662.389 649.602,665.91 C653.49,667.638 657.648,668.95 661.995,669.289 C666.317,669.578 670.878,668.596 674.581,666.324 C676.453,665.235 678.346,663.768 679.363,661.561 C680.452,659.349 680.069,656.791 679.358,654.75 C678.625,652.673 677.569,650.808 676.87,648.974 C676.539,648.065 676.334,647.145 676.53,646.484 C676.694,645.826 677.353,645.327 678.179,644.949 C681.761,643.642 686.126,643.725 690.214,643.741 C692.291,643.792 694.368,643.867 696.449,643.997 C698.557,644.074 700.303,644.555 702.13,645.462 C705.688,647.327 708.806,650.185 712.084,652.774 C715.327,655.434 718.706,658.003 722.371,660.134 C729.65,664.47 737.989,667.051 746.428,667.494 C754.882,668 763.265,666.668 771.428,664.751 L771.725,664.684 L771.707,664.371 C771.498,660.247 771.14,656.111 771.561,652.03 C771.768,650 772.24,647.993 773.185,646.195 C774.234,644.477 775.82,643.115 777.724,642.368 C781.56,640.912 785.848,641.149 789.905,641.619 C794.016,642.062 798.052,642.967 802.082,643.891 M54.211,311.548 C83.106,312.181 111.521,318.229 138.008,328.844 C164.5,339.5 188.995,354.827 210.521,373.554 C232.222,392.112 251.048,413.957 267.253,437.576 C283.444,461.241 297.234,486.547 309.46,512.726 C299.509,485.626 287.064,459.286 271.343,434.844 C267.246,428.85 263.362,422.687 258.997,416.878 L245.455,399.751 L230.616,383.708 C225.371,378.655 219.962,373.754 214.634,368.777 C209.009,364.138 203.186,359.728 197.467,355.196 C191.432,351.099 185.366,347.029 179.23,343.094 C172.786,339.655 166.504,335.918 159.934,332.753 L149.933,328.306 L144.927,326.115 C143.248,325.395 141.484,324.893 139.777,324.275 C112.417,314.19 83.041,309.728 54.211,311.548 M63.378,201.346 C77.809,127.501 41.771,89.118 32.911,85.77 C20.675,137.902 46.676,180.484 63.378,201.346 M249.478,375.615 L246.463,376.531 L249.541,375.842 L249.478,375.615 z M258.496,372.762 L255.496,373.727 L255.688,374.418 L258.759,373.68 L258.496,372.762 z M267.475,369.808 L264.485,370.789 L264.888,372.168 L267.941,371.365 L267.475,369.808 z M276.426,366.779 L273.447,367.803 L274.034,369.7 L277.074,368.842 L276.426,366.779 z M285.322,363.622 L282.364,364.689 L283.144,367.083 L286.175,366.183 L285.322,363.622 z M294.169,360.328 L291.229,361.442 L292.216,364.329 L295.231,363.375 L294.169,360.328 z M302.956,356.895 L300.031,358.056 L301.252,361.433 L304.252,360.436 L302.956,356.895 z M311.681,353.333 L308.781,354.537 L310.241,358.391 L313.229,357.345 L311.681,353.333 z M320.353,349.643 L317.466,350.879 L319.185,355.205 L322.153,354.098 L320.353,349.643 z M328.979,345.866 L326.113,347.137 L328.061,351.817 L331.004,350.645 L328.979,345.866 z M367.837,506.997 L370.874,507.773 L370.924,507.569 L367.837,506.997 z M339.799,347.049 L337.54,341.951 L334.694,343.271 L336.877,348.264 L339.799,347.049 z M377.066,508.979 L376.9,509.587 L379.89,510.534 L380.117,509.726 L377.066,508.979 z M348.538,343.303 L346.034,337.894 L343.21,339.259 L345.631,344.572 L348.538,343.303 z M386.219,511.288 L385.893,512.431 L388.89,513.371 L389.259,512.075 L386.219,511.288 z M354.332,340.729 L357.219,339.415 L354.451,333.695 L351.655,335.111 L354.332,340.729 z M395.354,513.653 L394.902,515.248 L397.903,516.175 L398.396,514.433 L395.354,513.653 z M362.956,336.719 L365.814,335.34 L362.81,329.393 L360.034,330.838 L362.956,336.719 z M404.498,515.972 L403.931,518.02 L406.942,518.929 L407.54,516.726 L404.498,515.972 z M374.335,331.101 L371.101,324.958 L368.345,326.453 L371.502,332.532 L374.335,331.101 z M412.985,520.724 L416.007,521.606 L416.711,518.947 L413.656,518.218 L412.985,520.724 z M382.781,326.718 L379.312,320.389 L376.582,321.93 L379.975,328.196 L382.781,326.718 z M422.066,523.348 L425.101,524.194 L425.889,521.089 L422.833,520.38 L422.066,523.348 z M391.16,322.191 L387.441,315.68 L384.743,317.268 L388.375,323.716 L391.16,322.191 z M431.183,525.832 L434.234,526.64 L435.069,523.197 L432.004,522.504 L431.183,525.832 z M96.084,195.764 C100.719,195.095 105.181,196.785 108.817,199.307 C112.5,201.827 115.801,204.898 118.753,208.332 C124.744,215.084 129.991,222.59 135.238,230.096 C145.807,245.072 156.28,260.449 169.144,274.237 C181.829,288.049 197.28,300.386 215.797,307.269 C225.007,310.687 234.934,312.478 244.786,312.455 C247.259,312.647 249.696,312.266 252.153,312.19 L255.832,311.944 L259.459,311.387 C264.238,310.711 269.233,309.751 274.039,307.971 C278.896,306.378 283.412,303.772 287.703,301.003 C291.834,298.001 295.735,294.691 299.043,291.006 C305.786,283.694 310.932,275.697 315.931,267.975 C320.866,260.221 325.73,252.711 331.258,245.822 C336.793,238.954 342.911,232.659 349.821,227.25 C356.715,221.825 364.43,217.44 372.517,213.734 C380.601,210.013 389.131,207.052 397.908,204.863 C415.406,200.167 433.674,197.928 452.025,196.43 C433.64,195.127 415.035,195.694 396.585,198.814 C378.223,201.967 359.822,208.253 343.978,219.332 C336.058,224.811 328.939,231.469 322.765,238.761 C316.539,246.02 311.152,253.807 305.973,261.394 C300.787,268.94 295.893,276.473 290.038,282.591 C287.174,285.734 283.972,288.328 280.663,290.716 C277.216,292.851 273.69,294.871 269.779,296.111 C265.977,297.581 261.898,298.418 257.598,299.07 L254.419,299.603 L251.221,299.842 C249.093,299.918 246.951,300.312 244.827,300.146 C236.284,300.31 227.842,298.726 219.737,296.033 C203.407,290.666 189.054,279.776 176.164,267.397 C163.314,254.842 151.902,240.534 140.128,226.346 C134.118,219.344 128.205,212.159 121.214,205.877 C117.781,202.707 113.949,199.843 109.753,197.665 C105.568,195.527 100.575,194.447 96.084,195.764 M345.951,208.885 C343.354,199.267 342.891,189.317 344.347,179.631 C345.654,169.931 348.347,160.472 351.733,151.301 C358.648,132.984 368.325,115.744 379.489,99.605 C385.018,91.485 391.018,83.687 397.372,76.185 C403.659,68.618 410.416,61.454 417.382,54.504 C431.462,40.772 446.735,28.08 463.95,18.063 C445.601,25.893 428.908,37.532 414.016,50.918 C399.08,64.31 385.751,79.504 374.308,96.021 C362.99,112.599 353.272,130.46 347.105,149.702 C344.016,159.298 341.887,169.258 341.284,179.35 C340.823,189.403 341.993,199.715 345.951,208.885 M399.456,317.518 L395.489,310.835 L392.816,312.466 L396.7,319.093 L399.456,317.518 z M440.338,528.214 L443.389,528.986 L444.267,525.213 L441.202,524.554 L440.338,528.214 z M404.946,314.329 L407.673,312.703 L403.463,305.872 L400.813,307.528 L404.946,314.329 z M449.514,530.51 L452.581,531.252 L453.492,527.13 L450.418,526.507 L449.514,530.51 z M413.091,309.395 L415.784,307.724 L411.388,300.814 L408.753,302.51 L413.091,309.395 z M458.719,532.685 L461.794,533.378 L462.721,528.991 L459.641,528.379 L458.719,532.685 z M421.148,304.333 L423.821,302.625 L419.231,295.637 L416.626,297.374 L421.148,304.333 z M467.959,534.737 L471.046,535.401 L471.971,530.764 L468.884,530.183 L467.959,534.737 z M429.136,299.167 L431.779,297.43 L427.016,290.356 L424.429,292.124 L429.136,299.167 z M477.227,536.693 L480.31,537.323 L481.232,532.435 L478.15,531.891 L477.227,536.693 z M437.051,293.924 L439.677,292.165 L434.774,284.985 L432.189,286.785 L437.051,293.924 z M486.511,538.547 L489.607,539.145 L490.513,534.008 L487.422,533.495 L486.511,538.547 z M444.915,288.657 L447.527,286.915 L442.55,279.581 L439.951,281.383 L444.915,288.657 z M495.821,540.29 L498.931,540.835 L499.813,535.507 L496.717,535.01 L495.821,540.29 z M472.228,193.424 C460.316,200.34 448.546,207.493 436.939,214.895 C431.138,218.605 425.383,222.383 419.708,226.28 C419.089,226.715 418.464,227.151 417.838,227.59 C417.679,227.322 417.523,227.05 417.334,226.802 C415.267,224.098 411.574,222.982 406.937,223.663 C402.678,224.312 397.946,226.424 393.721,229.658 C389.5,232.886 386.217,236.864 384.48,240.854 C382.61,245.144 382.72,249.001 384.793,251.708 C387.117,254.747 391.446,255.67 396.416,254.63 C400.239,253.836 404.442,251.883 408.406,248.85 C412.627,245.617 415.903,241.643 417.643,237.654 C419.211,234.056 419.366,230.773 418.165,228.213 C418.826,227.79 419.485,227.363 420.142,226.937 C425.952,223.268 431.838,219.717 437.76,216.241 C449.622,209.302 461.628,202.615 473.762,196.175 C498.013,183.278 522.704,171.214 547.834,160.288 C547.87,160.274 547.922,160.249 547.958,160.234 C549.526,159.478 550.188,157.594 549.432,156.026 C548.676,154.458 546.797,153.797 545.227,154.553 C520.337,166.52 496.037,179.568 472.228,193.424 M548.122,179.24 C542.272,192.492 535.97,205.574 529.76,218.702 C525.609,227.576 521.395,236.455 517.608,245.5 C512.131,245.689 506.189,248.447 501.624,253.49 C493.911,262.022 493.042,273.845 499.687,279.855 C503.147,282.987 507.98,283.923 512.901,282.899 C517.423,281.954 522.029,279.355 525.719,275.27 C533.434,266.742 534.303,254.916 527.663,248.911 C525.085,246.58 521.748,245.48 518.182,245.484 C522.261,236.673 526.741,228.044 531.171,219.402 C537.853,206.514 544.624,193.658 550.984,180.567 C557.329,167.472 563.391,154.186 568.163,140.288 C570.526,133.337 572.578,126.229 573.867,118.865 C575.134,111.528 575.579,103.795 573.842,96.014 C573.835,95.98 573.82,95.936 573.813,95.902 C573.37,94.219 571.648,93.209 569.961,93.652 C568.282,94.093 567.272,95.816 567.713,97.504 L567.747,97.623 C569.416,103.997 569.385,111.067 568.413,118.031 C567.445,125.015 565.724,131.971 563.661,138.839 C559.496,152.584 553.961,165.992 548.122,179.24 M627.824,546.264 L627.79,552.377 L630.949,552.384 L630.963,546.284 L627.824,546.264 z M594.538,349.85 L591.707,348.469 L587.961,356.326 L590.825,357.653 L594.538,349.85 z M582.241,353.646 L586.057,345.701 L583.238,344.313 L579.384,352.301 L582.241,353.646 z M618.302,552.287 L621.461,552.332 L621.551,546.183 L618.417,546.122 L618.302,552.287 z M573.671,349.6 L577.597,341.518 L574.783,340.119 L570.82,348.244 L573.671,349.6 z M608.818,552.08 L611.982,552.164 L612.142,545.967 L609.01,545.872 L608.818,552.08 z M562.293,344.099 L565.132,345.485 L569.14,337.333 L566.325,335.932 L562.293,344.099 z M590.215,545.033 L589.878,551.32 L593.03,551.482 L593.345,545.198 L590.215,545.033 z M552.274,328.876 L549.477,327.449 L545.308,335.671 L548.134,337.091 L552.274,328.876 z M543.879,324.583 L541.087,323.141 L536.852,331.389 L539.669,332.822 L543.879,324.583 z M580.417,550.726 L583.569,550.937 L583.956,544.682 L580.828,544.491 L580.417,550.726 z M531.22,328.498 L535.511,320.24 L532.735,318.782 L528.415,327.047 L531.22,328.498 z M570.971,550.024 L574.121,550.269 L574.576,544.075 L571.453,543.843 L570.971,550.024 z M520.004,322.648 L522.801,324.121 L527.179,315.841 L524.41,314.366 L520.004,322.648 z M552.708,542.216 L552.094,548.287 L555.235,548.604 L555.824,542.516 L552.708,542.216 z M510.628,306.873 L507.881,305.363 L503.302,313.591 L506.07,315.135 L510.628,306.873 z M502.407,302.312 L499.684,300.769 L495.029,308.893 L497.781,310.471 L502.407,302.312 z M542.673,547.258 L545.807,547.609 L546.464,541.577 L543.352,541.242 L542.673,547.258 z M489.546,305.696 L494.253,297.65 L491.56,296.073 L486.812,304.076 L489.546,305.696 z M533.268,546.086 L536.398,546.496 L537.115,540.547 L533.995,540.187 L533.268,546.086 z M478.658,299.104 L481.367,300.78 L486.196,292.871 L483.536,291.245 L478.658,299.104 z M515.32,537.808 L514.503,543.398 L517.624,543.877 L518.434,538.234 L515.32,537.808 z M470.536,282.791 L468.031,281.021 L462.67,288.414 L465.293,290.297 L470.536,282.791 z M457.483,284.458 L463.171,277.353 L460.863,275.456 L454.939,282.341 L457.483,284.458 z M452.745,283.491 L455.35,281.84 L450.511,274.216 L447.82,275.987 L452.745,283.491 z M505.15,541.895 L508.266,542.408 L509.11,536.922 L506.009,536.458 L505.15,541.895 z M524.653,539.05 L523.874,544.792 L527.004,545.236 L527.767,539.442 L524.653,539.05 z M478.267,287.935 L475.666,286.243 L470.601,293.92 L473.272,295.675 L478.267,287.935 z M562.075,543.085 L561.523,549.211 L564.671,549.493 L565.193,543.348 L562.075,543.085 z M518.886,311.382 L516.127,309.884 L511.627,318.177 L514.415,319.673 L518.886,311.382 z M599.609,545.503 L599.346,551.763 L602.503,551.88 L602.741,545.636 L599.609,545.503 z M560.695,333.124 L557.887,331.715 L553.795,339.91 L556.623,341.309 L560.695,333.124 z M637.24,546.291 L637.272,552.352 L640.435,552.323 L640.375,546.273 L637.24,546.291 z M603.034,353.963 L600.199,352.595 L596.556,360.308 L599.42,361.627 L603.034,353.963 z M646.65,546.214 L646.762,552.2 L649.924,552.112 L649.789,546.176 L646.65,546.214 z M611.545,358.045 L608.701,356.686 L605.162,364.259 L608.035,365.569 L611.545,358.045 z M633.987,377.152 L637.155,370.161 L634.306,368.82 L631.091,375.887 L633.987,377.152 z M665.725,551.468 L668.866,551.302 L668.603,545.67 L665.48,545.785 L665.725,551.468 z M625.309,373.356 L628.621,366.118 L625.772,364.781 L622.424,372.069 L625.309,373.356 z M620.075,362.097 L617.229,360.747 L613.782,368.181 L616.662,369.479 L620.075,362.097 z M656.244,551.893 L659.405,551.765 L659.203,545.981 L656.066,546.064 L656.244,551.893 z M674.878,545.4 L675.184,550.926 L678.33,550.721 L678.001,545.238 L674.878,545.4 z M645.707,374.173 L642.852,372.836 L639.781,379.665 L642.683,380.918 L645.707,374.173 z M619.189,205.508 C619.171,205.445 619.146,205.376 619.128,205.317 C618.541,203.674 616.734,202.82 615.094,203.407 C613.453,203.99 612.601,205.796 613.186,207.437 L613.201,207.479 C615.967,215.228 615.456,224.271 613.98,232.976 C612.47,241.753 609.928,250.456 607.394,259.164 C604.856,267.878 602.163,276.62 600.442,285.617 C599.933,288.333 599.544,291.085 599.323,293.85 C597.719,294.961 596.189,296.289 594.785,297.835 C591.115,301.898 588.859,306.828 588.424,311.715 C587.988,316.791 589.558,321.228 592.85,324.203 C596.137,327.175 600.705,328.291 605.718,327.341 C605.835,327.319 605.947,327.294 606.062,327.267 C610.756,326.29 615.298,323.584 618.885,319.617 C622.555,315.553 624.816,310.626 625.243,305.741 C625.687,300.668 624.118,296.23 620.827,293.256 C615.685,288.61 607.534,288.81 600.536,293.076 C600.905,290.682 601.402,288.302 601.983,285.95 C604.186,277.2 607.349,268.704 610.398,260.141 C613.433,251.57 616.511,242.955 618.615,233.912 C620.633,224.937 621.977,215.233 619.189,205.508 M684.272,544.889 L684.639,550.269 L687.784,550.019 L687.395,544.691 L684.272,544.889 z M654.275,378.153 L651.418,376.828 L648.486,383.409 L651.391,384.649 L654.275,378.153 z M662.859,382.097 L659.995,380.785 L657.2,387.121 L660.105,388.352 L662.859,382.097 z M694.082,549.461 L697.225,549.16 L696.791,544.066 L693.661,544.286 L694.082,549.461 z M577.406,143.336 C583.724,141.534 590.13,140.038 596.538,138.967 C599.74,138.418 602.957,138.038 606.116,137.857 C609.239,137.687 612.472,137.729 614.981,138.469 L616.201,132.284 C612.229,131.843 608.827,132.478 605.482,133.171 C602.147,133.904 598.925,134.829 595.777,135.904 C589.473,138.038 583.364,140.549 577.406,143.336 M677.601,395.617 L680.049,389.923 L677.187,388.616 L674.674,394.425 L677.601,395.617 z M671.454,386.01 L668.587,384.712 L665.928,390.798 L668.842,392.017 L671.454,386.01 z M703.516,548.51 L706.651,548.172 L706.171,543.328 L703.053,543.584 L703.516,548.51 z M644.022,287.226 C647.642,286.182 650.878,284.695 654.057,283.142 C657.218,281.565 660.251,279.832 663.217,278.033 C666.184,276.248 669.053,274.329 671.917,272.426 C674.838,270.553 677.459,268.506 680.877,267.068 C679.108,266.414 677.054,266.431 675.205,266.668 C673.319,266.931 671.51,267.39 669.748,267.964 C666.252,269.15 663.014,270.792 659.932,272.651 C656.86,274.531 653.98,276.676 651.285,279.056 C648.616,281.475 646.085,284.067 644.022,287.226 M712.42,542.768 L712.921,547.441 L716.053,547.06 L715.545,542.468 L712.42,542.768 z M686.385,399.159 L688.657,393.82 L685.784,392.526 L683.453,397.984 L686.385,399.159 z M721.782,541.825 L722.315,546.253 L725.445,545.83 L724.907,541.487 L721.782,541.825 z M697.277,397.672 L694.404,396.392 L692.246,401.506 L695.185,402.667 L697.277,397.672 z M731.142,540.783 L731.695,544.923 L734.814,544.444 L734.26,540.419 L731.142,540.783 z M705.922,401.488 L703.039,400.221 L701.059,404.982 L703.998,406.134 L705.922,401.488 z M714.577,405.272 L711.693,404.008 L709.888,408.418 L712.84,409.534 L714.577,405.272 z M741.051,543.44 L744.165,542.918 L743.609,539.24 L740.495,539.645 L741.051,543.44 z M723.235,409.057 L720.342,407.799 L718.762,411.739 L721.726,412.83 L723.235,409.057 z M750.391,541.836 L753.496,541.273 L752.944,537.939 L749.837,538.385 L750.391,541.836 z M729.016,411.543 L727.661,414.99 L730.636,416.056 L731.918,412.778 L729.016,411.543 z M702.261,230.585 C701.842,227.662 701.048,224.759 700.452,221.832 C699.673,218.934 698.463,216.09 697.459,213.21 C697.419,213.1 697.369,212.971 697.313,212.868 C696.555,211.295 694.658,210.641 693.09,211.403 C691.519,212.164 690.862,214.058 691.627,215.629 L691.783,215.955 C696.474,225.614 698.166,237.069 698.985,248.324 C699.705,259.666 699.527,271.132 699.014,282.582 C698.499,294.043 697.52,305.498 696.598,316.969 C696.163,322.355 695.725,327.749 695.403,333.151 C691.096,334.28 687.035,336.886 683.748,340.526 C680.069,344.587 677.812,349.52 677.389,354.402 C676.944,359.478 678.512,363.913 681.802,366.887 C685.269,370.024 690.104,370.96 695.027,369.936 C699.552,368.991 704.151,366.39 707.839,362.309 C715.554,353.779 716.427,341.951 709.783,335.941 C706.493,332.969 701.919,331.85 696.913,332.804 C696.699,332.845 696.483,332.905 696.265,332.953 C696.827,327.674 697.498,322.402 698.164,317.131 C699.61,305.719 701.116,294.3 702.16,282.802 C703.199,271.31 703.921,259.754 703.71,248.105 L703.278,239.355 C703.006,236.435 702.598,233.514 702.261,230.585 M759.163,536.998 L759.703,540.11 L762.797,539.487 L762.271,536.533 L759.163,536.998 z M739.573,419.218 L740.628,416.426 L737.723,415.22 L736.587,418.176 L739.573,419.218 z M666.083,196.092 C671.337,194.126 676.735,192.548 682.13,191.497 C684.828,190.993 687.537,190.676 690.131,190.663 C692.683,190.613 695.275,191.131 696.517,192.15 L699.676,186.691 C695.934,185.02 692.624,185.445 689.679,185.956 C686.709,186.536 683.937,187.427 681.255,188.471 C675.925,190.6 670.891,193.178 666.083,196.092 M768.49,535.561 L768.98,538.195 L772.069,537.529 L771.592,535.05 L768.49,535.561 z M748.541,422.273 L749.383,419.976 L746.458,418.802 L745.546,421.267 L748.541,422.273 z M716.67,249.545 C721.071,248.483 725.164,246.953 729.173,245.279 C733.176,243.61 737.1,241.81 740.92,239.85 C744.763,237.926 748.505,235.84 752.227,233.701 C755.991,231.613 759.55,229.358 763.549,227.297 C758.986,226.784 754.463,227.902 750.262,229.189 C746.039,230.546 741.969,232.238 738.065,234.23 C734.164,236.221 730.415,238.484 726.811,240.984 C723.213,243.488 719.757,246.229 716.67,249.545 M777.798,533.988 L778.232,536.157 L781.312,535.451 L780.896,533.439 L777.798,533.988 z M758.185,423.394 L755.237,422.276 L754.549,424.24 L757.557,425.198 L758.185,423.394 z M766.651,427.896 L767.05,426.632 L764.089,425.574 L763.609,427.039 L766.651,427.896 z M787.086,532.294 L787.453,533.997 L790.522,533.25 L790.18,531.706 L787.086,532.294 z M783.436,292.554 C774.857,296.692 766.561,301.349 758.68,306.612 C750.782,311.841 743.204,317.547 736.202,323.96 C744.682,319.696 752.911,315.198 761.179,310.826 C768.548,306.977 775.894,303.145 783.34,299.587 C783.099,301.959 782.84,304.324 782.631,306.707 C782.001,315.369 781.477,324.119 782.147,332.93 C782.804,341.638 784.33,350.775 788.976,358.308 C786.798,349.83 786.811,341.35 787.048,332.845 C787.385,324.342 788.159,315.806 788.911,307.224 C789.169,303.694 789.444,300.157 789.685,296.604 C792.706,295.216 795.742,293.875 798.808,292.617 C803.056,290.788 807.394,289.242 811.753,287.786 C820.505,285.082 829.525,282.875 838.966,284.026 C834.604,282.082 829.688,281.441 824.863,281.383 C820.017,281.398 815.191,282.01 810.488,283.034 C803.434,284.533 796.664,286.882 790.083,289.634 C790.209,286.841 790.306,284.035 790.306,281.225 C790.324,276.849 790.141,272.444 789.577,268.049 C789.01,263.691 787.932,259.214 785.772,255.4 C786.613,259.722 786.771,263.909 786.485,268.191 C786.316,272.439 785.826,276.696 785.392,280.955 C784.957,284.706 784.521,288.479 784.098,292.253 C783.877,292.356 783.655,292.453 783.436,292.554 M775.885,430.126 L776.025,429.539 L773.012,428.641 L772.789,429.451 L775.885,430.126 z M796.36,530.478 L796.642,531.718 L799.697,530.926 L799.447,529.846 L796.36,530.478 z M855.675,287.928 C850.747,292.043 846.328,296.591 842.143,301.291 C833.776,310.716 826.375,320.832 819.425,331.202 C812.513,341.604 806.047,352.276 800.12,363.245 C797.571,367.967 795.136,372.762 792.826,377.611 C792.241,377.667 791.66,377.741 791.066,377.856 C786.393,378.85 781.571,381.514 777.899,385.58 C774.223,389.642 771.968,394.569 771.541,399.458 C771.097,404.534 772.666,408.971 775.957,411.944 C779.422,415.076 784.258,416.018 789.178,414.99 C793.705,414.049 798.304,411.444 801.99,407.365 C805.669,403.303 807.925,398.371 808.351,393.489 C808.796,388.406 807.23,383.976 803.936,380.999 C801.27,378.59 797.767,377.419 793.867,377.561 C796.297,372.989 798.84,368.469 801.493,364.018 C807.851,353.365 814.725,343.024 822.013,333.009 C829.327,323.026 837.072,313.335 845.608,304.51 C849.877,300.107 854.336,295.9 859.12,292.237 C863.878,288.614 869.071,285.457 874.348,284.096 L874.503,284.051 C874.543,284.042 874.586,284.033 874.627,284.017 C876.292,283.507 877.23,281.743 876.717,280.08 C876.206,278.413 874.442,277.479 872.777,277.987 C866.045,280.055 860.62,283.867 855.675,287.928 M891.117,378.128 C878.022,386.804 863.282,393.091 848.279,398.5 C833.229,403.888 817.751,408.249 802.141,412.452 C818.228,410.83 834.196,407.776 849.8,403.18 C857.653,401.033 865.269,398.07 872.847,394.983 C880.351,391.72 887.652,387.878 894.595,383.382 C901.451,378.779 907.981,373.455 913.369,366.953 C916.112,363.749 918.362,360.104 920.36,356.348 C922.221,352.503 923.616,348.41 924.309,344.162 C924.91,339.91 924.921,335.574 924.156,331.378 C923.344,327.186 921.816,323.208 919.843,319.536 C915.766,312.215 909.769,306.319 903.055,301.846 C908.908,307.4 914.026,313.699 917.082,320.893 C918.594,324.475 919.688,328.196 920.09,331.985 C920.434,335.781 920.263,339.574 919.494,343.262 C918.641,346.941 917.203,350.444 915.469,353.808 C913.556,357.086 911.441,360.277 908.829,363.107 C903.778,368.894 897.687,373.865 891.117,378.128 M932.087,366.687 L930.296,369.151 L932.938,371.153 L934.798,368.512 L932.087,366.687 z M921.458,309.523 L923.794,311.634 L923.985,311.414 L921.458,309.523 z M935.203,361.46 L938.05,362.887 L939.388,359.919 L936.49,358.713 L935.203,361.46 z M928.152,316.15 L930.141,318.548 L930.917,317.9 L928.732,315.605 L928.152,316.15 z M926.577,378.452 L928.807,376.128 L926.311,373.808 L924.156,375.993 L926.577,378.452 z M919.379,384.847 L921.847,382.808 L919.57,380.106 L917.172,382.03 L919.379,384.847 z M911.601,390.465 L914.249,388.674 L912.168,385.659 L909.592,387.374 L911.601,390.465 z M903.359,395.318 L906.136,393.77 L904.324,390.661 L901.638,392.211 L903.359,395.318 z M894.829,399.625 L897.696,398.246 L896.146,395.143 L893.358,396.529 L894.829,399.625 z M886.104,403.441 L889.031,402.217 L887.697,399.157 L884.837,400.401 L886.104,403.441 z M877.225,406.847 L880.193,405.758 L879.043,402.761 L876.134,403.88 L877.225,406.847 z M868.205,409.804 L871.229,408.87 L870.266,406.051 L867.319,407.102 L868.205,409.804 z M859.077,412.411 L862.128,411.577 L861.379,409.104 L858.393,410.06 L859.077,412.411 z M849.881,414.731 L852.952,413.989 L852.381,411.88 L849.366,412.751 L849.881,414.731 z M840.616,416.745 L843.709,416.124 L843.304,414.427 L840.276,415.258 L840.616,416.745 z M834.419,417.91 L834.188,416.849 L831.134,417.607 L831.31,418.462 L834.419,417.91 z M825.077,419.472 L825.003,419.085 L821.945,419.816 L821.959,419.913 L825.077,419.472 z M814.876,526.673 L816.964,526.084 L814.846,526.579 L814.876,526.673 z M805.792,529.279 L808.816,528.426 L808.693,527.92 L805.617,528.568 L805.792,529.279 z M783.688,430.785 C783.187,430.864 782.671,430.853 782.172,430.819 L782.165,430.934 C782.674,430.931 783.196,430.906 783.688,430.785 M839.954,593.525 L840.206,595.087 L840.028,593.518 L839.954,593.525 z M839.464,583.969 L839.434,587.169 L839.788,587.169 L839.954,584.001 L839.464,583.969 z M840.652,574.448 L840.082,577.597 L840.798,577.724 L841.466,574.63 L840.652,574.448 z M843.266,565.191 L842.256,568.237 L843.246,568.564 L844.344,565.594 L843.266,565.191 z M847.037,556.328 L845.667,559.235 L846.895,559.813 L848.338,556.999 L847.037,556.328 z M851.733,547.92 L850.077,550.667 L851.51,551.536 L853.231,548.885 L851.733,547.92 z M857.218,539.998 L855.317,542.585 L856.876,543.728 L858.805,541.224 L857.218,539.998 z M863.332,532.55 L861.235,534.98 L862.85,536.369 L864.963,534.017 L863.332,532.55 z M869.951,525.553 L867.697,527.834 L869.348,529.466 L871.618,527.265 L869.951,525.553 z M877.012,518.992 L874.613,521.132 L876.285,523.01 L878.688,520.956 L877.012,518.992 z M884.448,512.874 L881.932,514.863 L883.613,516.992 L886.131,515.083 L884.448,512.874 z M892.228,507.184 L889.6,509.031 L891.27,511.407 L893.889,509.645 L892.228,507.184 z M900.328,501.948 L897.59,503.633 L899.226,506.261 L901.935,504.637 L900.328,501.948 z M908.737,497.214 L905.904,498.737 L907.427,501.527 L910.213,500.049 L908.737,497.214 z M917.401,492.966 L914.483,494.325 L915.876,497.255 L918.742,495.938 L917.401,492.966 z M926.185,489.137 L923.265,490.403 L924.572,493.436 L927.508,492.183 L926.185,489.137 z M934.895,485.255 L931.999,486.56 L933.358,489.634 L936.283,488.34 L934.895,485.255 z M943.56,481.268 L940.68,482.609 L942.106,485.719 L945.009,484.389 L943.56,481.268 z M952.168,477.162 L949.302,478.546 L950.798,481.682 L953.683,480.316 L952.168,477.162 z M960.707,472.936 L957.868,474.356 L959.436,477.533 L962.305,476.12 L960.707,472.936 z M969.19,468.578 L966.373,470.041 L968.015,473.242 L970.857,471.789 L969.19,468.578 z M977.587,464.083 L974.799,465.597 L976.522,468.821 L979.342,467.316 L977.587,464.083 z M985.925,459.477 L983.158,461.023 L984.946,464.231 L987.732,462.661 L985.925,459.477 z M994.189,454.734 L991.447,456.329 L993.271,459.457 L996.023,457.83 L994.189,454.734 z M1002.35,449.824 L999.643,451.478 L1001.5,454.52 L1004.218,452.835 L1002.35,449.824 z M1010.401,444.742 L1007.734,446.452 L1009.622,449.404 L1012.302,447.655 L1010.401,444.742 z M1018.33,439.472 L1015.699,441.252 L1017.628,444.105 L1020.267,442.289 L1018.33,439.472 z M1026.117,434.009 L1023.538,435.852 L1025.505,438.606 L1028.097,436.727 L1026.117,434.009 z M1033.753,428.33 L1031.229,430.247 L1033.231,432.898 L1035.77,430.945 L1033.753,428.33 z M1041.214,422.428 L1038.746,424.422 L1040.792,426.967 L1043.273,424.935 L1041.214,422.428 z M1048.475,416.297 L1046.077,418.365 L1048.167,420.799 L1050.577,418.685 L1048.475,416.297 z M1055.509,409.91 L1053.193,412.069 L1055.324,414.378 L1057.662,412.18 L1055.509,409.91 z M1062.333,403.303 L1060.09,405.535 L1062.216,407.666 L1064.45,405.36 L1062.333,403.303 z M1068.876,396.416 L1066.727,398.745 L1068.813,400.66 L1070.944,398.259 L1068.876,396.416 z M1075.088,389.241 L1073.059,391.667 L1075.088,393.367 L1077.106,390.87 L1075.088,389.241 z M1080.936,381.762 L1079.028,384.286 L1081.003,385.769 L1082.889,383.175 L1080.936,381.762 z M960.109,457.828 C943.922,467.098 927.317,475.774 910.037,482.643 C905.71,484.421 901.357,485.753 896.899,487.323 L890.179,489.879 C887.969,490.79 885.938,492.075 883.811,493.16 L880.659,494.861 L877.723,496.897 C875.788,498.285 873.754,499.547 871.911,501.043 C868.342,504.173 864.605,507.13 861.437,510.66 C848.151,524.209 838.125,540.558 830.745,557.856 C827.3,566.609 824.204,575.552 822.6,584.838 C820.912,594.061 820.105,603.569 821.639,612.848 C820.505,603.515 821.644,594.128 823.554,585.034 C825.412,575.883 828.747,567.112 832.401,558.569 C840.037,541.613 850.214,525.652 863.444,512.66 C866.603,509.256 870.295,506.457 873.81,503.474 C875.63,502.065 877.59,500.845 879.469,499.52 L882.317,497.567 L885.355,495.949 C887.4,494.928 889.36,493.699 891.481,492.84 L897.903,490.439 C902.288,488.925 906.901,487.541 911.254,485.775 C928.838,478.904 945.583,470.275 961.94,461.034 C978.217,451.642 994.063,441.511 1009.303,430.504 C1024.477,419.443 1039.313,407.756 1052.401,394.146 C1058.899,387.326 1065.098,380.111 1069.956,371.905 C1072.413,367.823 1074.229,363.337 1075.698,358.853 C1077.129,354.337 1078.159,349.587 1077.991,344.729 C1077.862,339.912 1075.887,334.906 1072.053,331.807 C1068.275,328.669 1063.557,327.267 1058.949,326.336 C1049.582,324.859 1040.137,325.559 1030.853,326.677 C1040.171,325.951 1049.623,325.611 1058.769,327.298 C1063.255,328.338 1067.751,329.863 1071.133,332.861 C1074.559,335.819 1076.171,340.303 1076.175,344.792 C1076.229,349.306 1075.194,353.846 1073.718,358.204 C1072.188,362.587 1070.397,366.799 1067.947,370.71 C1063.107,378.562 1056.89,385.553 1050.367,392.155 C1037.156,405.254 1022.517,416.925 1007.336,427.77 C992.146,438.615 976.32,448.58 960.109,457.828 M938.484,352.991 L941.319,353.677 L941.888,350.467 L939.134,350.042 L938.484,352.991 z M933.669,323.667 L935.17,326.369 L936.619,325.566 L934.882,322.884 L933.669,323.667 z M939.539,340.974 L939.672,344.007 L942.194,343.951 L941.92,340.715 L939.539,340.974 z M939.474,331.333 L937.602,332.03 L938.497,334.96 L940.547,334.375 L939.474,331.333 z M1068.797,323.66 L1070.347,323.955 L1070.361,323.879 L1068.797,323.66 z M1086.361,373.975 L1084.604,376.603 L1086.509,377.879 L1088.24,375.178 L1086.361,373.975 z M1076.323,325.996 C1077.277,326.45 1078.204,326.954 1079.102,327.51 L1079.368,327.047 C1078.434,326.527 1077.464,326.059 1076.481,325.647 L1076.323,325.996 z M1089.601,368.615 L1091.479,369.558 L1092.793,366.556 L1090.908,365.805 L1089.601,368.615 z M1084.088,331.349 L1086.246,333.632 L1086.912,333.043 L1084.612,330.777 L1084.088,331.349 z M1092.748,359.899 L1094.602,360.27 L1095.048,357.026 L1093.257,356.845 L1092.748,359.899 z M1092.94,347.569 L1093.365,350.651 L1094.931,350.492 L1094.371,347.27 L1092.94,347.569 z M1089.794,338.792 L1091.149,341.608 L1092.276,341.113 L1090.766,338.236 L1089.794,338.792 z M1212.403,453.586 C1205.293,491.562 1178.955,519.055 1159.335,538.841 C1139.708,558.628 1104.727,580.675 1104.727,580.675 C1104.727,580.675 1095.408,574.571 1091.288,575.426 C1087.177,576.284 1088.676,596.365 1088.676,596.365 L1054.136,618.595 C1054.136,618.595 1036.557,611.521 1032.77,613.924 C1028.974,616.322 1030.756,632.59 1030.048,634.345 C1029.344,636.102 985.948,659.639 982.861,660.283 C979.776,660.922 968.953,647.617 968.953,647.617 C968.953,647.617 952.411,653.213 949.435,654.37 C946.453,655.526 946.195,674.901 946.195,674.901 C946.195,674.901 900.765,688.662 898.492,688.063 C896.224,687.461 887.177,677.542 887.177,677.542 C887.177,677.542 879.354,678.634 875.567,681.037 C871.771,683.438 867.872,698.204 865.818,698.63 C863.759,699.062 810.245,707.531 806.542,707.767 C802.834,707.998 788.386,692.768 788.386,692.768 C788.386,692.768 780.437,690.664 776.322,691.524 C772.209,692.383 771.46,701.665 766.462,708.606 C752.58,711.497 704.387,708.131 696.476,704.95 C688.567,701.766 688.792,691.256 688.792,691.256 C688.792,691.256 681.208,689.616 677.351,690.419 C673.488,691.225 678.379,703.087 673.909,704.819 C669.44,706.556 621.16,698.911 614.185,696.341 C607.21,693.772 603.189,674.485 603.189,674.485 L597.787,675.605 C597.787,675.605 595.829,681.651 589.718,690.973 C552.721,683.393 540.139,662.94 522.909,647.213 C481.288,622.609 415.456,623.457 409.734,623.036 C404.012,622.618 409.993,635.866 409.993,635.866 C409.993,635.866 336.449,657.628 330.273,658.919 C324.103,660.208 320.92,648.794 317.799,645.419 C314.683,642.042 277.846,654.55 275.402,658.283 C272.961,662.008 231.421,659.671 231.421,659.671 C231.421,659.671 223.276,659.221 218.11,644.733 C203.427,638.669 186.048,655.708 186.048,655.708 C186.048,655.708 147.987,650.763 143.449,649.564 C138.901,648.36 133.306,631.816 132.343,627.192 C131.38,622.562 113.312,631.156 106.63,632.549 C99.943,633.944 88.027,625.691 82.647,623.057 C77.269,620.419 71.503,595.33 71.503,595.33 L62.991,590.661 C47.457,571.358 49.018,472.021 66.697,460.285 C55.352,452.189 61.823,430.4 69.844,429.043 C59.762,399.881 40.547,302.731 55.303,233.899 C30.159,203.432 -17.588,126.513 16.162,78.795 C29.662,66.323 52.45,63.671 52.45,63.671 C52.45,63.671 101.293,105.984 90.058,172.327 C105.878,161.089 123.433,157.421 140.332,134.557 C163.325,103.444 212.701,129.596 234.306,163.735 C255.908,197.87 292.732,196.227 321.259,175.394 C320.134,169.992 348.133,71.316 433.505,14.884 C479.774,-15.703 496.192,45.286 496.192,45.286 C496.192,45.286 528.682,62.125 539.847,79.655 C591.343,76.973 583.911,113.405 583.911,113.405 L598.408,126.304 C600.982,125.766 610.909,121.932 617.701,124.272 C621.034,125.42 630.909,140.636 628.38,146.531 C637.36,148.415 640.003,163.678 640.003,163.678 C640.003,163.678 657.571,175.865 672.552,180.792 C698.139,172.24 708.448,185.654 709.63,191.313 C710.804,196.967 727.441,214.969 750.368,221.994 C786.154,213.462 779.728,234.124 779.728,234.124 C779.728,234.124 846.648,268.742 863.458,274.093 C882.875,266.823 886.491,284.184 886.491,284.184 L883.843,290.774 C883.843,290.774 887.893,294.759 887.731,293.987 C907.144,286.72 961.022,317.349 984.424,325.352 C1007.831,333.353 1025.217,324.095 1025.217,324.095 L1028.916,322.52 C1136.954,304.025 1178.145,371.644 1178.145,371.644 L1192.122,379.465 C1192.122,379.465 1205.687,413.667 1212.403,453.586 M512.485,258.698 C513.576,255.551 514.768,252.443 516.004,249.354 C515.743,249.395 515.484,249.388 515.216,249.444 C511.452,250.229 507.537,252.466 504.367,255.969 C498.024,262.989 497.036,272.475 502.159,277.112 C507.294,281.747 516.629,279.808 522.979,272.792 C529.324,265.772 530.311,256.291 525.184,251.651 C522.891,249.579 519.745,248.888 516.418,249.309 C515.043,252.407 513.715,255.53 512.485,258.698 M695.794,351.418 C694.735,346.729 694.969,341.91 695.201,337.135 C692.028,338.236 688.999,340.234 686.488,343.006 C683.35,346.473 681.426,350.635 681.07,354.724 C680.731,358.621 681.876,361.964 684.286,364.142 C689.416,368.784 698.755,366.847 705.096,359.829 C711.441,352.809 712.433,343.325 707.299,338.684 C704.891,336.503 701.446,335.704 697.603,336.438 C697.509,336.456 697.414,336.472 697.322,336.492 C696.836,336.595 696.359,336.785 695.873,336.928 C695.419,341.755 694.937,346.617 695.794,351.418 M785.324,397.438 C786.339,391.943 788.62,386.804 790.897,381.724 C787.169,382.642 783.551,384.84 780.642,388.055 C777.503,391.531 775.579,395.692 775.224,399.78 C774.884,403.677 776.027,407.025 778.439,409.201 C783.571,413.842 792.902,411.905 799.249,404.885 C802.39,401.416 804.312,397.253 804.67,393.165 C805.007,389.266 803.862,385.922 801.452,383.744 C799.051,381.573 795.62,380.774 791.8,381.487 C789.235,386.624 786.613,391.806 785.324,397.438 M600.028,297.934 C602.644,295.787 605.551,294.381 608.377,293.785 C612.153,293.004 615.78,293.672 618.347,295.999 C620.759,298.174 621.895,301.522 621.556,305.417 C621.2,309.503 619.274,313.666 616.142,317.14 C612.999,320.605 608.917,322.868 605.025,323.707 C601.184,324.434 597.735,323.635 595.325,321.46 C592.915,319.28 591.779,315.931 592.114,312.035 C592.47,307.944 594.398,303.781 597.526,300.314 C598.045,299.743 598.606,299.266 599.152,298.766 C599.157,298.937 599.146,299.108 599.15,299.275 C599.258,303.849 600.352,308.491 602.831,312.318 C600.579,308.347 599.789,303.755 599.935,299.275 C599.951,298.823 600.003,298.379 600.028,297.934" fill="#0A0B09"/>
    <path d="M814.849,526.581 L814.876,526.675 L816.964,526.084 L814.849,526.581 z M808.695,527.92 L805.619,528.568 L805.792,529.276 L808.819,528.426 L808.695,527.92 z M799.7,530.923 L799.445,529.844 L796.358,530.476 L796.644,531.718 L799.7,530.923 z M790.522,533.25 L790.18,531.704 L787.088,532.296 L787.453,533.995 L790.522,533.25 z M778.232,536.157 L781.312,535.451 L780.894,533.439 L777.798,533.988 L778.232,536.157 z M768.985,538.195 L772.07,537.527 L771.595,535.05 L768.487,535.561 L768.985,538.195 z M759.703,540.11 L762.797,539.485 L762.273,536.53 L759.161,537.001 L759.703,540.11 z M752.947,537.939 L749.835,538.382 L750.386,541.838 L753.498,541.276 L752.947,537.939 z M743.612,539.24 L740.493,539.647 L741.049,543.438 L744.167,542.92 L743.612,539.24 z M731.695,544.923 L734.814,544.441 L734.258,540.418 L731.142,540.783 L731.695,544.923 z M722.318,546.253 L725.445,545.83 L724.907,541.487 L721.784,541.829 L722.318,546.253 z M712.922,547.443 L716.056,547.058 L715.545,542.466 L712.42,542.767 L712.922,547.443 z M706.172,543.326 L703.053,543.586 L703.514,548.512 L706.651,548.167 L706.172,543.326 z M696.791,544.066 L693.661,544.286 L694.08,549.461 L697.225,549.157 L696.791,544.066 z M684.637,550.269 L687.784,550.017 L687.393,544.693 L684.272,544.889 L684.637,550.269 z M675.185,550.93 L678.33,550.724 L678.001,545.24 L674.874,545.4 L675.185,550.93 z M668.601,545.672 L665.482,545.785 L665.725,551.466 L668.869,551.302 L668.601,545.672 z M659.203,545.978 L656.066,546.064 L656.246,551.889 L659.403,551.765 L659.203,545.978 z M649.924,552.109 L649.791,546.174 L646.65,546.217 L646.76,552.199 L649.924,552.109 z M637.274,552.355 L640.438,552.321 L640.375,546.273 L637.238,546.289 L637.274,552.355 z M627.786,552.379 L630.95,552.384 L630.961,546.282 L627.826,546.264 L627.786,552.379 z M621.551,546.178 L618.417,546.125 L618.302,552.287 L621.464,552.328 L621.551,546.178 z M612.142,545.965 L609.008,545.87 L608.818,552.08 L611.98,552.164 L612.142,545.965 z M602.503,551.878 L602.741,545.634 L599.612,545.503 L599.346,551.763 L602.503,551.878 z M589.878,551.32 L593.03,551.484 L593.345,545.195 L590.216,545.033 L589.878,551.32 z M583.958,544.685 L580.828,544.491 L580.417,550.728 L583.569,550.94 L583.958,544.685 z M574.576,544.075 L571.453,543.843 L570.971,550.019 L574.119,550.271 L574.576,544.075 z M564.669,549.49 L565.195,543.346 L562.077,543.085 L561.523,549.211 L564.669,549.49 z M552.094,548.284 L555.232,548.602 L555.824,542.516 L552.706,542.216 L552.094,548.284 z M546.462,541.575 L543.352,541.24 L542.677,547.258 L545.807,547.607 L546.462,541.575 z M537.115,540.547 L533.995,540.189 L533.268,546.084 L536.398,546.496 L537.115,540.547 z M527.004,545.238 L527.767,539.442 L524.653,539.048 L523.876,544.797 L527.004,545.238 z M514.503,543.397 L517.626,543.872 L518.434,538.234 L515.32,537.808 L514.503,543.397 z M509.112,536.922 L506.009,536.463 L505.152,541.892 L508.262,542.407 L509.112,536.922 z M499.808,535.507 L496.717,535.009 L495.821,540.292 L498.926,540.837 L499.808,535.507 z M490.513,534.006 L487.426,533.497 L486.511,538.549 L489.604,539.145 L490.513,534.006 z M481.232,532.435 L478.15,531.891 L477.229,536.693 L480.31,537.325 L481.232,532.435 z M471.971,530.764 L468.884,530.185 L467.96,534.737 L471.047,535.401 L471.971,530.764 z M462.721,528.993 L459.641,528.379 L458.721,532.683 L461.797,533.38 L462.721,528.993 z M453.492,527.134 L450.418,526.507 L449.516,530.509 L452.581,531.25 L453.492,527.134 z M444.267,525.211 L441.202,524.552 L440.343,528.217 L443.387,528.991 L444.267,525.211 z M435.069,523.197 L432.007,522.506 L431.183,525.832 L434.23,526.635 L435.069,523.197 z M425.889,521.093 L422.831,520.378 L422.071,523.345 L425.104,524.194 L425.889,521.093 z M416.711,518.947 L413.654,518.218 L412.985,520.722 L416.007,521.604 L416.711,518.947 z M406.942,518.929 L407.545,516.726 L404.498,515.972 L403.931,518.022 L406.942,518.929 z M394.904,515.245 L397.906,516.175 L398.394,514.433 L395.357,513.652 L394.904,515.245 z M385.891,512.431 L388.89,513.369 L389.259,512.078 L386.217,511.285 L385.891,512.431 z M376.897,509.587 L379.89,510.534 L380.117,509.726 L377.066,508.977 L376.897,509.587 z M370.876,507.769 L370.926,507.568 L367.837,506.995 L370.876,507.769 z M777.589,642.022 C775.609,642.76 773.908,644.164 772.781,645.961 C771.761,647.824 771.244,649.894 771.003,651.969 C770.528,656.021 770.798,660.067 770.953,664.09 C762.91,665.831 754.695,666.985 746.507,666.371 C738.229,665.804 730.174,663.167 723.148,658.845 C719.617,656.696 716.319,654.183 713.106,651.523 C709.844,648.922 706.759,646.031 702.898,643.964 C700.999,642.962 698.638,642.348 696.553,642.287 C694.456,642.146 692.354,642.06 690.248,641.99 C688.14,641.956 686.029,641.95 683.899,642.082 C681.773,642.224 679.622,642.436 677.457,643.289 C676.413,643.745 675.18,644.553 674.773,645.97 C674.401,647.347 674.782,648.565 675.139,649.604 C675.922,651.681 676.937,653.479 677.581,655.362 C678.206,657.22 678.443,659.155 677.626,660.762 C676.883,662.398 675.32,663.676 673.603,664.648 C670.135,666.733 666.146,667.552 662.132,667.285 C658.123,666.949 654.183,665.696 650.453,664.02 C642.976,660.598 636.244,655.591 629.953,650.212 C623.677,644.787 617.778,638.838 612.409,632.558 L612.162,632.272 L611.82,632.18 C608.571,631.31 605.232,630.589 601.735,630.601 C599.992,630.632 598.201,630.846 596.464,631.469 C594.729,632.09 593.08,633.269 592.004,634.853 C589.84,638.104 589.865,641.925 590.279,645.282 C590.634,647.813 591.25,650.232 592.085,652.608 C571.984,646.31 552.384,638.428 533.63,628.844 C514.049,618.925 495.544,607.097 476.932,595.328 C467.629,589.451 458.224,583.618 448.312,578.615 C438.397,573.626 427.943,569.536 416.65,568.044 C405.484,567.495 394.549,567.857 383.519,567.886 L350.514,568.1 C306.522,568.188 262.492,567.115 218.686,563.065 C196.807,560.925 174.962,558.207 153.371,554.042 C142.587,551.898 131.863,549.43 121.297,546.385 C110.761,543.251 100.354,539.622 90.331,535.055 C100.285,539.773 110.648,543.56 121.153,546.856 C131.692,550.066 142.398,552.708 153.171,555.014 C174.742,559.528 196.6,562.599 218.522,564.772 C262.388,569.052 306.475,570.355 350.512,570.499 L383.539,570.447 C394.515,570.478 405.612,570.181 416.434,570.771 C426.996,572.231 437.339,576.254 446.999,581.209 C456.716,586.181 466.025,592.006 475.29,597.931 C493.771,609.833 512.593,621.475 532.33,631.417 C552.058,641.374 572.699,649.48 593.854,655.832 L596.453,656.615 L595.377,654.095 C594.144,651.213 593.185,648.061 592.745,644.951 C592.321,641.871 592.43,638.586 594.013,636.244 C595.55,633.854 598.687,633.033 601.76,632.986 C604.782,632.961 607.862,633.568 610.882,634.354 C616.345,640.645 622.204,646.483 628.517,651.883 C634.945,657.317 641.81,662.389 649.602,665.91 C653.49,667.638 657.646,668.95 661.995,669.289 C666.315,669.582 670.878,668.601 674.584,666.324 C676.456,665.235 678.346,663.77 679.36,661.563 C680.452,659.344 680.071,656.791 679.358,654.75 C678.627,652.675 677.57,650.81 676.87,648.974 C676.539,648.065 676.336,647.145 676.53,646.483 C676.694,645.826 677.354,645.329 678.179,644.949 C681.761,643.639 686.126,643.725 690.214,643.741 C692.291,643.795 694.368,643.865 696.449,644 C698.557,644.071 700.303,644.557 702.133,645.462 C705.688,647.327 708.806,650.185 712.082,652.774 C715.327,655.436 718.708,658.003 722.372,660.136 C729.65,664.47 737.987,667.053 746.426,667.496 C754.88,668 763.265,666.668 771.428,664.753 L771.727,664.684 L771.712,664.371 C771.503,660.249 771.14,656.111 771.557,652.032 C771.768,649.998 772.24,647.993 773.185,646.198 C774.234,644.477 775.82,643.115 777.719,642.37 C781.558,640.91 785.849,641.151 789.903,641.619 C794.016,642.062 798.055,642.967 802.08,643.894 C798.07,642.906 794.039,641.938 789.93,641.432 C785.862,640.906 781.567,640.579 777.589,642.022 M821.943,419.816 L821.959,419.913 L825.077,419.472 L825.001,419.083 L821.943,419.816 z M831.134,417.607 L831.312,418.464 L834.419,417.91 L834.188,416.848 L831.134,417.607 z M843.305,414.427 L840.271,415.255 L840.616,416.745 L843.712,416.119 L843.305,414.427 z M852.383,411.883 L849.366,412.753 L849.881,414.736 L852.953,413.989 L852.383,411.883 z M861.381,409.102 L858.393,410.06 L859.079,412.411 L862.128,411.577 L861.381,409.102 z M870.268,406.051 L867.321,407.101 L868.205,409.806 L871.227,408.868 L870.268,406.051 z M879.048,402.763 L876.134,403.882 L877.225,406.847 L880.193,405.758 L879.048,402.763 z M887.697,399.159 L884.835,400.401 L886.104,403.443 L889.034,402.219 L887.697,399.159 z M896.143,395.143 L893.358,396.531 L894.829,399.625 L897.696,398.243 L896.143,395.143 z M904.325,390.658 L901.638,392.209 L903.359,395.32 L906.136,393.772 L904.325,390.658 z M912.164,385.659 L909.592,387.371 L911.599,390.465 L914.245,388.674 L912.164,385.659 z M919.573,380.106 L917.172,382.034 L919.379,384.844 L921.85,382.81 L919.573,380.106 z M926.309,373.808 L924.158,375.997 L926.579,378.452 L928.807,376.128 L926.309,373.808 z M932.94,371.153 L934.803,368.512 L932.087,366.687 L930.299,369.151 L932.94,371.153 z M939.386,359.919 L936.49,358.713 L935.203,361.458 L938.047,362.882 L939.386,359.919 z M941.888,350.467 L939.134,350.041 L938.484,352.991 L941.319,353.677 L941.888,350.467 z M939.672,344.002 L942.194,343.955 L941.92,340.713 L939.542,340.974 L939.672,344.002 z M938.495,334.96 L940.547,334.372 L939.474,331.333 L937.602,332.03 L938.495,334.96 z M936.619,325.566 L934.88,322.884 L933.667,323.669 L935.17,326.371 L936.619,325.566 z M930.915,317.9 L928.73,315.605 L928.152,316.15 L930.141,318.548 L930.915,317.9 z M923.985,311.411 L921.458,309.523 L923.792,311.634 L923.985,311.411 z M848.277,398.502 C833.229,403.888 817.751,408.251 802.141,412.452 C818.228,410.83 834.196,407.772 849.8,403.175 C857.655,401.033 865.269,398.07 872.847,394.985 C880.351,391.72 887.652,387.877 894.593,383.382 C901.453,378.778 907.979,373.455 913.367,366.948 C916.11,363.748 918.365,360.103 920.36,356.35 C922.221,352.503 923.62,348.408 924.309,344.162 C924.91,339.91 924.923,335.572 924.158,331.378 C923.341,327.188 921.814,323.212 919.841,319.536 C915.766,312.214 909.774,306.319 903.053,301.846 C908.91,307.399 914.024,313.699 917.082,320.893 C918.594,324.475 919.688,328.196 920.095,331.985 C920.437,335.776 920.263,339.574 919.494,343.262 C918.639,346.941 917.203,350.449 915.469,353.808 C913.556,357.082 911.446,360.272 908.829,363.103 C903.778,368.894 897.687,373.862 891.119,378.128 C878.018,386.804 863.282,393.088 848.277,398.502 M782.165,430.931 C782.676,430.929 783.193,430.906 783.693,430.785 C783.185,430.866 782.674,430.852 782.172,430.819 L782.165,430.931 z M773.012,428.638 L772.789,429.453 L775.888,430.126 L776.025,429.541 L773.012,428.638 z M764.089,425.572 L763.609,427.041 L766.654,427.898 L767.05,426.631 L764.089,425.572 z M755.242,422.273 L754.547,424.237 L757.562,425.198 L758.182,423.396 L755.242,422.273 z M749.383,419.974 L746.46,418.806 L745.547,421.267 L748.541,422.271 L749.383,419.974 z M740.628,416.425 L737.723,415.219 L736.589,418.176 L739.573,419.215 L740.628,416.425 z M730.631,416.059 L731.918,412.778 L729.018,411.545 L727.659,414.99 L730.631,416.059 z M720.344,407.797 L718.76,411.736 L721.724,412.828 L723.235,409.057 L720.344,407.797 z M711.695,404.008 L709.886,408.418 L712.838,409.531 L714.578,405.268 L711.695,404.008 z M703.039,400.219 L701.06,404.982 L704,406.132 L705.917,401.488 L703.039,400.219 z M694.402,396.394 L692.248,401.506 L695.182,402.669 L697.277,397.672 L694.402,396.394 z M688.657,393.82 L685.789,392.524 L683.453,397.984 L686.383,399.161 L688.657,393.82 z M680.049,389.925 L677.185,388.618 L674.676,394.427 L677.601,395.615 L680.049,389.925 z M668.587,384.712 L665.93,390.8 L668.839,392.02 L671.454,386.01 L668.587,384.712 z M659.997,380.783 L657.198,387.121 L660.107,388.348 L662.859,382.097 L659.997,380.783 z M651.42,376.823 L648.486,383.407 L651.388,384.651 L654.28,378.151 L651.42,376.823 z M642.854,372.836 L639.785,379.665 L642.683,380.918 L645.709,374.173 L642.854,372.836 z M637.157,370.161 L634.309,368.815 L631.091,375.892 L633.989,377.152 L637.157,370.161 z M628.621,366.122 L625.772,364.781 L622.424,372.069 L625.311,373.356 L628.621,366.122 z M617.229,360.749 L613.784,368.179 L616.662,369.477 L620.075,362.097 L617.229,360.749 z M608.701,356.688 L605.162,364.261 L608.033,365.571 L611.541,358.045 L608.701,356.688 z M600.199,352.595 L596.556,360.31 L599.422,361.631 L603.034,353.963 L600.199,352.595 z M591.707,348.471 L587.963,356.321 L590.825,357.658 L594.538,349.848 L591.707,348.471 z M586.057,345.701 L583.236,344.315 L579.382,352.3 L582.242,353.646 L586.057,345.701 z M577.597,341.518 L574.783,340.119 L570.818,348.244 L573.669,349.6 L577.597,341.518 z M569.142,337.331 L566.323,335.932 L562.295,344.099 L565.133,345.485 L569.142,337.331 z M557.888,331.713 L553.795,339.91 L556.625,341.309 L560.695,333.124 L557.888,331.713 z M549.477,327.447 L545.31,335.668 L548.134,337.09 L552.271,328.873 L549.477,327.447 z M541.084,323.14 L536.852,331.389 L539.667,332.82 L543.879,324.58 L541.084,323.14 z M535.513,320.24 L532.73,318.778 L528.415,327.046 L531.223,328.5 L535.513,320.24 z M527.18,315.841 L524.41,314.365 L520.002,322.648 L522.801,324.121 L527.18,315.841 z M516.132,309.883 L511.628,318.179 L514.415,319.673 L518.886,311.384 L516.132,309.883 z M507.881,305.363 L503.302,313.591 L506.068,315.135 L510.628,306.873 L507.881,305.363 z M499.684,300.769 L495.029,308.891 L497.781,310.471 L502.407,302.312 L499.684,300.769 z M494.253,297.65 L491.56,296.071 L486.81,304.076 L489.546,305.696 L494.253,297.65 z M486.196,292.871 L483.536,291.244 L478.658,299.104 L481.367,300.778 L486.196,292.871 z M475.661,286.247 L470.601,293.92 L473.272,295.675 L478.267,287.93 L475.661,286.247 z M468.031,281.016 L462.667,288.418 L465.293,290.297 L470.536,282.791 L468.031,281.016 z M463.174,277.357 L460.863,275.456 L454.941,282.339 L457.483,284.458 L463.174,277.357 z M450.511,274.216 L447.822,275.985 L452.745,283.491 L455.35,281.839 L450.511,274.216 z M442.552,279.58 L439.954,281.383 L444.915,288.657 L447.525,286.915 L442.552,279.58 z M434.774,284.983 L432.189,286.785 L437.053,293.924 L439.677,292.169 L434.774,284.983 z M427.018,290.356 L424.429,292.124 L429.136,299.167 L431.779,297.43 L427.018,290.356 z M419.231,295.632 L416.626,297.371 L421.153,304.335 L423.819,302.625 L419.231,295.632 z M411.388,300.814 L408.753,302.51 L413.091,309.395 L415.784,307.723 L411.388,300.814 z M403.463,305.872 L400.813,307.53 L404.948,314.332 L407.673,312.703 L403.463,305.872 z M395.491,310.835 L392.818,312.466 L396.702,319.09 L399.458,317.52 L395.491,310.835 z M387.443,315.679 L384.743,317.268 L388.377,323.712 L391.158,322.191 L387.443,315.679 z M379.314,320.389 L376.582,321.93 L379.973,328.196 L382.784,326.718 L379.314,320.389 z M368.345,326.45 L371.5,332.532 L374.335,331.101 L371.104,324.958 L368.345,326.45 z M365.814,335.34 L362.812,329.393 L360.034,330.835 L362.959,336.719 L365.814,335.34 z M357.219,339.415 L354.454,333.693 L351.652,335.11 L354.332,340.726 L357.219,339.415 z M346.034,337.891 L343.21,339.259 L345.632,344.569 L348.538,343.307 L346.034,337.891 z M337.543,341.95 L334.697,343.269 L336.877,348.266 L339.804,347.051 L337.543,341.95 z M328.059,351.814 L331.004,350.647 L328.982,345.865 L326.113,347.139 L328.059,351.814 z M319.189,355.203 L322.153,354.098 L320.353,349.643 L317.468,350.878 L319.189,355.203 z M308.781,354.537 L310.241,358.391 L313.229,357.347 L311.681,353.333 L308.781,354.537 z M301.253,361.433 L304.254,360.436 L302.956,356.897 L300.033,358.054 L301.253,361.433 z M292.219,364.329 L295.234,363.379 L294.169,360.328 L291.229,361.442 L292.219,364.329 z M282.364,364.689 L283.145,367.081 L286.171,366.178 L285.325,363.622 L282.364,364.689 z M274.034,369.695 L277.074,368.842 L276.426,366.781 L273.449,367.803 L274.034,369.695 z M264.89,372.168 L267.941,371.36 L267.48,369.805 L264.485,370.786 L264.89,372.168 z M255.688,374.416 L258.759,373.682 L258.496,372.76 L255.494,373.727 L255.688,374.416 z M249.541,375.842 L249.478,375.615 L246.463,376.533 L249.541,375.842 z M210.521,373.549 C232.222,392.112 251.048,413.959 267.253,437.578 C283.444,461.239 297.236,486.547 309.463,512.723 C299.509,485.629 287.068,459.288 271.343,434.844 C267.248,428.848 263.367,422.687 258.997,416.878 L245.457,399.751 L230.618,383.708 C225.364,378.655 219.962,373.752 214.636,368.777 C209.009,364.14 203.186,359.725 197.471,355.196 C191.434,351.101 185.366,347.029 179.233,343.093 C172.786,339.655 166.505,335.916 159.934,332.752 L149.933,328.306 L144.925,326.115 C143.248,325.395 141.484,324.893 139.774,324.274 C112.417,314.19 83.045,309.728 54.211,311.546 C83.108,312.178 111.521,318.229 138.01,328.844 C164.5,339.5 188.995,354.827 210.521,373.549 M344.342,179.629 C345.654,169.931 348.347,160.474 351.733,151.301 C358.648,132.982 368.325,115.742 379.492,99.605 C385.016,91.485 391.023,83.686 397.375,76.183 C403.659,68.618 410.409,61.454 417.382,54.504 C431.462,40.77 446.735,28.08 463.95,18.063 C445.599,25.891 428.909,37.532 414.016,50.917 C399.08,64.312 385.753,79.501 374.308,96.021 C362.99,112.599 353.272,130.462 347.101,149.701 C344.012,159.295 341.887,169.258 341.284,179.347 C340.823,189.403 341.991,199.717 345.951,208.885 C343.348,199.267 342.891,189.315 344.342,179.629 M1164.472,432.556 C1152.932,445.799 1138.842,456.545 1124.192,466.297 C1109.457,475.985 1094.108,484.798 1078.641,493.414 C1063.147,501.977 1047.526,510.385 1031.884,518.744 L1030.775,519.341 L1030.372,520.585 C1027.391,529.9 1024.013,539.073 1019.945,547.933 C1015.801,556.753 1010.95,565.225 1005.349,573.165 C994.259,589.135 979.848,602.687 963.306,613.028 C946.773,623.432 928.339,630.722 909.432,636.302 C890.539,642.055 871.036,645.826 851.773,650.574 C871.326,647.282 890.928,644.168 910.28,639.398 C929.57,634.509 948.629,627.703 965.952,617.346 C983.295,607.099 998.536,593.127 1010.288,576.675 C1016.159,568.444 1021.232,559.672 1025.57,550.573 C1029.645,541.834 1033.054,532.813 1035.941,523.647 C1051.168,515.344 1066.475,507.206 1081.501,498.483 C1096.909,489.595 1112.238,480.494 1126.872,470.225 C1141.481,460.01 1155.49,448.477 1166.735,434.421 C1178.066,420.428 1185.239,403.441 1188.671,386.066 C1183.923,403.141 1176.284,419.499 1164.472,432.556 M981.247,575.291 C943.621,586.591 905.818,597.379 867.465,605.704 C829.195,614.223 790.371,620.732 751.297,622.226 C731.774,622.888 712.229,622.285 692.91,619.832 C673.585,617.436 654.557,612.985 636.093,606.793 C599.087,594.454 564.455,575.559 527.99,560.459 C491.571,545.238 453.449,533.833 414.59,526.858 C395.176,523.26 375.59,520.733 355.964,518.902 C336.305,517.063 316.69,516.121 297.088,514.933 C257.884,512.536 218.662,510.203 179.734,505.429 C160.283,503.035 140.848,500.103 121.966,494.914 C112.554,492.284 103.25,489.062 94.691,484.339 C90.439,481.959 86.382,479.176 82.917,475.722 C79.497,472.259 76.725,468.054 75.377,463.306 C76.567,468.094 79.218,472.435 82.573,476.053 C85.959,479.662 89.982,482.623 94.212,485.17 C102.755,490.176 112.077,493.648 121.493,496.534 C140.393,502.22 159.86,505.642 179.323,508.516 C218.333,513.914 257.576,516.816 296.759,519.799 L326.151,521.973 C335.961,522.659 345.697,523.345 355.444,524.336 C374.922,526.253 394.333,528.849 413.539,532.51 C452.009,539.597 489.551,551.045 525.573,566.276 C561.766,581.038 596.56,599.832 634.293,612.232 C671.917,624.857 712.094,629.32 751.505,627.05 C790.99,624.942 829.912,617.859 868.156,608.697 C906.385,599.335 944.046,587.945 981.247,575.291 M736.202,323.959 C744.68,319.696 752.909,315.198 761.182,310.828 C768.55,306.976 775.897,303.147 783.344,299.585 C783.099,301.959 782.84,304.324 782.631,306.704 C781.999,315.369 781.479,324.119 782.149,332.926 C782.807,341.638 784.332,350.777 788.976,358.308 C786.798,349.828 786.809,341.352 787.045,332.845 C787.385,324.342 788.159,315.805 788.909,307.224 C789.172,303.694 789.442,300.157 789.685,296.604 C792.706,295.216 795.746,293.875 798.811,292.617 C803.054,290.785 807.397,289.242 811.753,287.788 C820.501,285.082 829.523,282.872 838.966,284.026 C834.606,282.082 829.688,281.441 824.863,281.383 C820.021,281.398 815.193,282.01 810.488,283.034 C803.437,284.53 796.664,286.884 790.083,289.633 C790.209,286.841 790.306,284.04 790.306,281.225 C790.321,276.849 790.144,272.443 789.575,268.049 C789.005,263.691 787.932,259.213 785.774,255.402 C786.609,259.722 786.771,263.905 786.483,268.191 C786.319,272.439 785.824,276.696 785.389,280.955 C784.953,284.708 784.516,288.477 784.098,292.252 C783.878,292.356 783.655,292.453 783.437,292.552 C774.855,296.692 766.564,301.349 758.68,306.612 C750.782,311.841 743.204,317.547 736.202,323.959 M740.92,239.85 C744.763,237.926 748.505,235.84 752.227,233.701 C755.989,231.613 759.553,229.358 763.547,227.299 C758.988,226.784 754.463,227.905 750.26,229.189 C746.042,230.548 741.971,232.24 738.065,234.232 C734.166,236.221 730.413,238.486 726.813,240.984 C723.215,243.488 719.755,246.229 716.67,249.545 C721.069,248.481 725.164,246.953 729.173,245.279 C733.18,243.612 737.096,241.81 740.92,239.85 M654.059,283.142 C657.218,281.563 660.251,279.832 663.217,278.032 C666.185,276.25 669.051,274.329 671.915,272.425 C674.838,270.556 677.459,268.506 680.877,267.066 C679.109,266.411 677.052,266.431 675.203,266.668 C673.319,266.931 671.513,267.39 669.751,267.964 C666.254,269.149 663.012,270.792 659.932,272.65 C656.86,274.529 653.98,276.678 651.283,279.056 C648.617,281.475 646.085,284.067 644.02,287.228 C647.64,286.182 650.88,284.695 654.059,283.142 M690.129,190.663 C692.685,190.613 695.273,191.133 696.517,192.15 L699.674,186.691 C695.932,185.02 692.624,185.443 689.677,185.956 C686.709,186.538 683.937,187.427 681.255,188.471 C675.925,190.597 670.891,193.176 666.081,196.094 C671.337,194.125 676.735,192.55 682.13,191.497 C684.828,190.993 687.539,190.676 690.129,190.663 M596.54,138.964 C599.742,138.415 602.957,138.037 606.116,137.855 C609.237,137.686 612.475,137.727 614.984,138.469 L616.203,132.284 C612.232,131.843 608.832,132.478 605.482,133.168 C602.147,133.906 598.925,134.829 595.777,135.904 C589.471,138.037 583.364,140.546 577.404,143.336 C583.729,141.534 590.125,140.035 596.54,138.964 M415.456,229.966 C411.264,232.706 407.124,235.543 403.299,238.788 C407.018,235.377 411.075,232.366 415.195,229.448 C415.071,229.201 414.992,228.933 414.828,228.717 C413.485,226.964 410.848,226.276 407.396,226.784 C407.05,226.834 406.697,226.897 406.345,226.971 C402.849,227.7 399.087,229.518 395.635,232.159 C391.831,235.071 388.895,238.603 387.369,242.111 C385.981,245.308 385.952,248.035 387.295,249.788 C390.236,253.633 399.033,252.058 406.487,246.346 C410.292,243.439 413.228,239.906 414.751,236.396 C415.849,233.872 416.063,231.66 415.456,229.966 M472.228,193.423 C496.037,179.568 520.333,166.52 545.227,154.55 C546.797,153.796 548.678,154.458 549.43,156.024 C550.186,157.594 549.524,159.478 547.958,160.231 C547.922,160.247 547.87,160.274 547.837,160.288 C522.704,171.216 498.015,183.278 473.762,196.177 C461.63,202.615 449.622,209.299 437.762,216.241 C431.838,219.717 425.952,223.267 420.142,226.937 C419.486,227.36 418.826,227.788 418.169,228.213 C419.366,230.776 419.209,234.054 417.643,237.652 C415.908,241.643 412.625,245.619 408.409,248.85 C404.442,251.885 400.239,253.836 396.416,254.632 C391.444,255.667 387.119,254.745 384.788,251.705 C382.72,249.001 382.612,245.146 384.48,240.851 C386.217,236.862 389.5,232.886 393.721,229.657 C397.946,226.424 402.678,224.311 406.937,223.666 C411.572,222.984 415.267,224.098 417.335,226.8 C417.523,227.05 417.681,227.322 417.839,227.592 C418.464,227.153 419.083,226.714 419.71,226.28 C425.383,222.383 431.138,218.605 436.941,214.897 C448.547,207.493 460.318,200.338 472.228,193.423 M516.418,249.309 C515.043,252.407 513.716,255.53 512.487,258.696 C513.576,255.553 514.771,252.445 516.006,249.356 C515.743,249.394 515.484,249.388 515.216,249.444 C511.452,250.229 507.537,252.466 504.371,255.969 C498.024,262.989 497.036,272.47 502.159,277.114 C507.294,281.749 516.631,279.808 522.977,272.79 C529.324,265.772 530.312,256.291 525.184,251.653 C522.893,249.581 519.748,248.888 516.418,249.309 M548.122,179.239 C553.961,165.994 559.496,152.584 563.661,138.841 C565.727,131.974 567.445,125.014 568.413,118.028 C569.385,111.069 569.417,103.997 567.745,97.623 L567.716,97.499 C567.274,95.818 568.282,94.093 569.961,93.652 C571.648,93.208 573.374,94.216 573.815,95.902 C573.82,95.935 573.836,95.98 573.844,96.014 C575.579,103.795 575.138,111.526 573.867,118.865 C572.573,126.232 570.528,133.337 568.163,140.287 C563.391,154.186 557.327,167.474 550.984,180.567 C544.626,193.657 537.854,206.512 531.173,219.402 C526.741,228.044 522.261,236.671 518.182,245.484 C521.748,245.479 525.085,246.58 527.663,248.908 C534.305,254.914 533.435,266.74 525.717,275.272 C522.029,279.355 517.428,281.956 512.903,282.899 C507.98,283.927 503.147,282.987 499.687,279.857 C493.042,273.847 493.913,262.019 501.624,253.492 C506.189,248.447 512.131,245.686 517.61,245.5 C521.395,236.452 525.609,227.578 529.76,218.702 C535.97,205.571 542.273,192.492 548.122,179.239 M791.802,381.49 C789.232,386.626 786.609,391.808 785.326,397.438 C786.339,391.943 788.623,386.804 790.898,381.724 C787.169,382.637 783.556,384.835 780.642,388.057 C777.503,391.527 775.579,395.692 775.226,399.778 C774.886,403.677 776.027,407.023 778.439,409.198 C783.574,413.847 792.904,411.905 799.252,404.885 C802.391,401.411 804.314,397.251 804.67,393.165 C805.007,389.27 803.867,385.922 801.457,383.74 C799.054,381.573 795.62,380.774 791.802,381.49 M842.139,301.291 C846.328,296.59 850.75,292.045 855.677,287.926 C860.623,283.867 866.045,280.055 872.777,277.987 C874.445,277.479 876.208,278.413 876.715,280.08 C877.23,281.745 876.292,283.509 874.625,284.017 C874.586,284.033 874.546,284.044 874.501,284.056 L874.35,284.094 C869.074,285.457 863.876,288.61 859.12,292.237 C854.336,295.9 849.877,300.105 845.609,304.508 C837.072,313.337 829.33,323.026 822.013,333.009 C814.727,343.021 807.851,353.36 801.493,364.021 C798.84,368.469 796.3,372.987 793.87,377.561 C797.767,377.424 801.27,378.585 803.934,380.997 C807.226,383.974 808.796,388.411 808.351,393.489 C807.928,398.374 805.669,403.303 801.992,407.365 C798.305,411.446 793.706,414.047 789.181,414.99 C784.258,416.014 779.422,415.078 775.955,411.941 C772.664,408.971 771.097,404.536 771.541,399.456 C771.968,394.569 774.223,389.641 777.899,385.58 C781.571,381.514 786.391,378.853 791.066,377.86 C791.658,377.746 792.243,377.667 792.826,377.608 C795.136,372.76 797.566,367.969 800.12,363.24 C806.047,352.276 812.511,341.599 819.423,331.202 C826.38,320.832 833.776,310.716 842.139,301.291 M695.875,336.933 C695.421,341.755 694.937,346.619 695.794,351.418 C694.732,346.729 694.966,341.91 695.201,337.135 C692.03,338.236 689,340.234 686.488,343.006 C683.352,346.473 681.426,350.635 681.073,354.724 C680.733,358.616 681.876,361.964 684.286,364.144 C689.416,368.784 698.755,366.842 705.098,359.824 C711.441,352.807 712.435,343.327 707.301,338.688 C704.891,336.505 701.442,335.704 697.604,336.436 C697.513,336.456 697.417,336.472 697.322,336.492 C696.834,336.595 696.359,336.784 695.875,336.933 M702.261,230.587 C702.599,233.512 703.008,236.434 703.278,239.355 L703.71,248.107 C703.922,259.753 703.199,271.312 702.16,282.802 C701.116,294.3 699.61,305.716 698.164,317.128 C697.498,322.4 696.825,327.674 696.263,332.953 C696.481,332.905 696.699,332.845 696.913,332.804 C701.921,331.85 706.489,332.968 709.781,335.941 C716.427,341.95 715.554,353.779 707.841,362.308 C704.151,366.39 699.552,368.991 695.027,369.931 C690.104,370.96 685.269,370.019 681.802,366.892 C678.512,363.915 676.944,359.478 677.387,354.402 C677.812,349.519 680.071,344.585 683.748,340.526 C687.035,336.883 691.096,334.28 695.401,333.148 C695.722,327.748 696.161,322.355 696.596,316.969 C697.523,305.496 698.501,294.043 699.012,282.582 C699.527,271.129 699.707,259.668 698.985,248.326 C698.168,237.067 696.474,225.614 691.781,215.953 L691.628,215.629 C690.862,214.056 691.519,212.166 693.088,211.401 C694.663,210.64 696.555,211.295 697.318,212.866 C697.367,212.974 697.424,213.1 697.459,213.208 C698.458,216.09 699.671,218.934 700.448,221.832 C701.048,224.759 701.842,227.662 702.261,230.587 M600.028,297.934 C600.003,298.379 599.951,298.822 599.935,299.275 C599.785,303.752 600.579,308.347 602.831,312.318 C600.352,308.491 599.256,303.849 599.148,299.275 C599.143,299.108 599.159,298.937 599.152,298.766 C598.604,299.266 598.043,299.745 597.526,300.314 C594.398,303.784 592.47,307.944 592.112,312.034 C591.777,315.929 592.92,319.279 595.325,321.46 C597.737,323.635 601.184,324.436 605.025,323.707 C608.915,322.868 613.001,320.607 616.14,317.137 C619.276,313.668 621.198,309.505 621.558,305.417 C621.898,301.522 620.757,298.174 618.345,295.999 C615.78,293.672 612.153,293.004 608.378,293.785 C605.554,294.381 602.642,295.787 600.028,297.934 M618.617,233.912 C616.513,242.953 613.435,251.57 610.398,260.14 C607.349,268.704 604.183,277.2 601.981,285.95 C601.402,288.301 600.901,290.68 600.536,293.076 C607.538,288.805 615.685,288.61 620.827,293.256 C624.118,296.23 625.687,300.665 625.243,305.741 C624.814,310.626 622.559,315.553 618.885,319.617 C615.299,323.584 610.756,326.293 606.06,327.269 C605.945,327.296 605.833,327.319 605.716,327.341 C600.705,328.291 596.14,327.175 592.85,324.202 C589.558,321.228 587.988,316.789 588.424,311.715 C588.859,306.828 591.115,301.898 594.785,297.835 C596.185,296.287 597.717,294.959 599.326,293.848 C599.546,291.085 599.935,288.335 600.442,285.617 C602.163,276.615 604.854,267.878 607.394,259.164 C609.932,250.459 612.472,241.753 613.98,232.976 C615.456,224.271 615.969,215.228 613.197,207.477 L613.181,207.436 C612.601,205.796 613.453,203.992 615.096,203.407 C616.734,202.819 618.541,203.674 619.126,205.317 C619.148,205.375 619.173,205.445 619.189,205.506 C621.974,215.23 620.633,224.935 618.617,233.912 M1070.363,323.878 L1068.797,323.665 L1070.35,323.955 L1070.363,323.878 z M1079.37,327.046 C1078.432,326.527 1077.464,326.059 1076.481,325.647 L1076.323,325.996 C1077.28,326.45 1078.202,326.954 1079.098,327.51 L1079.37,327.046 z M1086.914,333.04 L1084.617,330.777 L1084.09,331.348 L1086.246,333.632 L1086.914,333.04 z M1092.276,341.116 L1090.769,338.236 L1089.797,338.791 L1091.149,341.606 L1092.276,341.116 z M1093.363,350.653 L1094.933,350.491 L1094.371,347.272 L1092.94,347.569 L1093.363,350.653 z M1095.05,357.025 L1093.255,356.845 L1092.751,359.899 L1094.607,360.268 L1095.05,357.025 z M1092.793,366.561 L1090.908,365.805 L1089.601,368.613 L1091.479,369.558 L1092.793,366.561 z M1086.509,377.878 L1088.242,375.174 L1086.361,373.97 L1084.604,376.6 L1086.509,377.878 z M1081.006,385.774 L1082.889,383.175 L1080.936,381.762 L1079.03,384.284 L1081.006,385.774 z M1075.093,393.367 L1077.106,390.87 L1075.088,389.239 L1073.054,391.662 L1075.093,393.367 z M1066.732,398.745 L1068.815,400.657 L1070.944,398.261 L1068.876,396.418 L1066.732,398.745 z M1062.218,407.664 L1064.45,405.358 L1062.335,403.303 L1060.09,405.535 L1062.218,407.664 z M1053.191,412.065 L1055.327,414.376 L1057.662,412.177 L1055.509,409.912 L1053.191,412.065 z M1048.167,420.799 L1050.577,418.687 L1048.473,416.297 L1046.077,418.369 L1048.167,420.799 z M1040.789,426.967 L1043.273,424.939 L1041.214,422.431 L1038.749,424.422 L1040.789,426.967 z M1033.231,432.898 L1035.772,430.942 L1033.751,428.33 L1031.229,430.247 L1033.231,432.898 z M1025.505,438.606 L1028.099,436.727 L1026.121,434.005 L1023.539,435.852 L1025.505,438.606 z M1017.625,444.1 L1020.265,442.291 L1018.332,439.472 L1015.702,441.25 L1017.625,444.1 z M1009.62,449.404 L1012.304,447.658 L1010.401,444.742 L1007.734,446.456 L1009.62,449.404 z M1001.497,454.52 L1004.218,452.835 L1002.35,449.822 L999.639,451.476 L1001.497,454.52 z M993.269,459.457 L996.021,457.828 L994.192,454.734 L991.449,456.331 L993.269,459.457 z M984.946,464.233 L987.732,462.658 L985.925,459.472 L983.158,461.02 L984.946,464.233 z M976.525,468.819 L979.342,467.316 L977.587,464.08 L974.799,465.597 L976.525,468.819 z M968.015,473.245 L970.857,471.784 L969.19,468.574 L966.368,470.043 L968.015,473.245 z M959.436,477.533 L962.302,476.12 L960.709,472.936 L957.87,474.356 L959.436,477.533 z M950.796,481.687 L953.685,480.316 L952.169,477.16 L949.304,478.546 L950.796,481.687 z M942.107,485.716 L945.011,484.387 L943.558,481.268 L940.68,482.609 L942.107,485.716 z M933.359,489.634 L936.284,488.338 L934.895,485.255 L932,486.56 L933.359,489.634 z M924.57,493.438 L927.508,492.181 L926.185,489.136 L923.265,490.403 L924.57,493.438 z M915.876,497.254 L918.74,495.938 L917.401,492.964 L914.483,494.325 L915.876,497.254 z M907.427,501.525 L910.215,500.049 L908.737,497.214 L905.902,498.737 L907.427,501.525 z M899.226,506.266 L901.935,504.639 L900.328,501.946 L897.592,503.635 L899.226,506.266 z M891.27,511.405 L893.891,509.643 L892.233,507.184 L889.603,509.031 L891.27,511.405 z M881.932,514.863 L883.609,516.989 L886.131,515.083 L884.45,512.874 L881.932,514.863 z M874.611,521.131 L876.285,523.01 L878.686,520.951 L877.012,518.994 L874.611,521.131 z M869.346,529.466 L871.618,527.265 L869.953,525.548 L867.695,527.834 L869.346,529.466 z M862.85,536.368 L864.961,534.015 L863.332,532.55 L861.232,534.978 L862.85,536.368 z M856.881,543.728 L858.802,541.224 L857.221,539.998 L855.315,542.585 L856.881,543.728 z M851.513,551.536 L853.229,548.885 L851.735,547.92 L850.079,550.667 L851.513,551.536 z M846.898,559.813 L848.34,556.999 L847.037,556.331 L845.667,559.233 L846.898,559.813 z M843.246,568.564 L844.344,565.594 L843.268,565.191 L842.254,568.235 L843.246,568.564 z M840.798,577.726 L841.464,574.63 L840.654,574.448 L840.085,577.602 L840.798,577.726 z M839.788,587.171 L839.954,584.001 L839.464,583.972 L839.437,587.171 L839.788,587.171 z M840.029,593.521 L839.954,593.53 L840.208,595.087 L840.029,593.521 z M896.897,487.323 L890.179,489.877 C887.969,490.792 885.935,492.073 883.811,493.159 L880.654,494.863 L877.725,496.894 C875.788,498.285 873.751,499.545 871.913,501.043 C868.342,504.175 864.605,507.127 861.437,510.664 C848.151,524.209 838.127,540.558 830.747,557.858 C827.3,566.606 824.204,575.552 822.596,584.838 C820.912,594.061 820.107,603.569 821.641,612.85 C820.501,603.52 821.646,594.128 823.554,585.031 C825.412,575.883 828.742,567.112 832.403,558.569 C840.037,541.618 850.214,525.649 863.444,512.66 C866.601,509.256 870.295,506.455 873.81,503.473 C875.63,502.063 877.588,500.843 879.469,499.52 L882.313,497.565 L885.355,495.952 C887.402,494.926 889.362,493.699 891.482,492.838 L897.901,490.437 C902.286,488.927 906.898,487.541 911.255,485.775 C928.836,478.901 945.585,470.277 961.94,461.034 C978.217,451.642 994.068,441.515 1009.298,430.501 C1024.479,419.445 1039.313,407.756 1052.401,394.146 C1058.897,387.326 1065.103,380.11 1069.956,371.902 C1072.411,367.821 1074.229,363.332 1075.696,358.852 C1077.125,354.334 1078.162,349.587 1077.989,344.731 C1077.863,339.916 1075.887,334.901 1072.053,331.807 C1068.277,328.666 1063.559,327.267 1058.951,326.333 C1049.582,324.862 1040.135,325.559 1030.855,326.677 C1040.173,325.953 1049.627,325.611 1058.769,327.298 C1063.255,328.338 1067.751,329.861 1071.135,332.86 C1074.559,335.819 1076.173,340.303 1076.179,344.79 C1076.227,349.303 1075.198,353.846 1073.716,358.207 C1072.186,362.587 1070.397,366.799 1067.951,370.71 C1063.109,378.562 1056.89,385.555 1050.37,392.155 C1037.156,405.252 1022.519,416.927 1007.336,427.765 C992.146,438.613 976.32,448.58 960.109,457.825 C943.922,467.102 927.317,475.774 910.037,482.641 C905.713,484.423 901.357,485.757 896.897,487.323 M108.817,199.309 C105.181,196.785 100.721,195.093 96.086,195.763 C100.575,194.449 105.568,195.527 109.753,197.662 C113.951,199.843 117.783,202.709 121.21,205.877 C128.207,212.161 134.118,219.343 140.128,226.345 C151.897,240.532 163.314,254.839 176.161,267.397 C189.049,279.778 203.407,290.664 219.737,296.032 C227.839,298.726 236.284,300.31 244.827,300.145 C246.951,300.312 249.093,299.918 251.219,299.844 L254.416,299.603 L257.603,299.072 C261.898,298.42 265.977,297.578 269.779,296.111 C273.692,294.871 277.216,292.851 280.665,290.716 C283.968,288.328 287.176,285.734 290.038,282.591 C295.893,276.473 300.784,268.938 305.973,261.394 C311.152,253.807 316.539,246.019 322.765,238.759 C328.939,231.469 336.058,224.811 343.98,219.33 C359.815,208.251 378.225,201.962 396.59,198.812 C415.035,195.694 433.642,195.129 452.027,196.429 C433.674,197.923 415.406,200.167 397.908,204.862 C389.131,207.049 380.601,210.01 372.519,213.732 C364.43,217.438 356.715,221.827 349.821,227.25 C342.907,232.659 336.793,238.954 331.258,245.821 C325.73,252.709 320.863,260.221 315.936,267.975 C310.932,275.697 305.786,283.693 299.043,291.004 C295.736,294.694 291.834,298.001 287.703,301.003 C283.412,303.772 278.896,306.376 274.039,307.973 C269.233,309.751 264.24,310.711 259.459,311.386 L255.832,311.944 L252.155,312.19 C249.694,312.266 247.259,312.646 244.786,312.455 C234.931,312.478 225.009,310.687 215.802,307.264 C197.28,300.391 181.829,288.049 169.144,274.237 C156.278,260.449 145.807,245.074 135.238,230.096 C129.987,222.588 124.747,215.084 118.75,208.332 C115.803,204.896 112.5,201.829 108.817,199.309" fill="#FFFFFE"/>
    <path d="M453.944,364.563 L454.073,364.624 L453.944,364.563" fill="#FFFFFE"/>
  </g>
</svg>
